<svg xmlns="http://www.w3.org/2000/svg" width="100" height="100" viewBox="0 0 100 100" fill="none">
    <path d="M50 100C77.6142 100 100 77.6142 100 50C100 22.3858 77.6142 0 50 0C22.3858 0 0 22.3858 0 50C0 77.6142 22.3858 100 50 100Z" fill="#7717FF"/>
    <path d="M17.4088 41.7705C18.2859 38.3436 19.6716 35.1164 21.5314 32.1663C21.7792 31.7732 21.6678 31.2542 21.281 30.9965L9.99475 23.4799C4.52097 31.654 1.65602 41.7093 1.96076 51.5179L15.5151 51.1259C15.9797 51.1123 16.3488 50.7307 16.3472 50.2655C16.3367 47.4189 16.6932 44.5649 17.4088 41.77V41.7705Z" fill="white"/>
    <path d="M22.4665 70.8696L11.6371 79.0286C17.5134 86.8754 25.9629 92.908 35.4349 95.8754L39.5282 82.9494C39.6688 82.5051 39.4289 82.031 38.9882 81.8794C32.9536 79.8095 27.612 76.0225 23.6546 71.0228C23.3656 70.6574 22.8382 70.5889 22.466 70.8691L22.4665 70.8696Z" fill="white"/>
    <path d="M69.4321 77.5191C66.8291 79.3638 63.9934 80.8258 60.9909 81.8707C60.5514 82.0238 60.3135 82.499 60.4557 82.9422L64.5961 95.8546C74.0236 92.8418 82.424 86.8907 88.3729 78.9655L77.5367 70.8144C77.1645 70.5347 76.6382 70.6032 76.3491 70.9681C74.3722 73.464 72.0483 75.6651 69.4321 77.5197V77.5191Z" fill="white"/>
    <path d="M97.3521 42.2006C96.2366 35.5036 93.6571 29.0372 89.8946 23.415L78.6209 30.9472C78.2336 31.2059 78.1243 31.7266 78.3737 32.1202C81.7822 37.4931 83.6295 43.8272 83.6018 50.1828C83.5997 50.6485 83.9687 51.0312 84.4345 51.0442L97.9877 51.4305C98.0771 48.3361 97.8581 45.214 97.3526 42.2006H97.3521Z" fill="white"/>
    <path d="M67.0953 5.23757C56.1336 1.03501 43.7162 1.01567 32.7723 5.26788L37.6387 17.9221C37.806 18.357 38.2895 18.5786 38.728 18.4213C45.9487 15.8302 53.9362 15.8496 61.1898 18.4145C61.6288 18.5697 62.1108 18.346 62.2765 17.9111L67.0948 5.23757H67.0953Z" fill="white"/>
    <path d="M49.9995 21.0875C53.903 21.0875 57.689 21.8517 61.2528 23.3592C62.9657 24.0837 64.618 24.9806 66.1636 26.0245C67.6946 27.0589 69.1347 28.247 70.443 29.5554C71.7514 30.8637 72.9395 32.3038 73.9739 33.8348C75.0183 35.3804 75.9147 37.0327 76.6392 38.7456C78.1467 42.3094 78.9109 46.0954 78.9109 49.9989C78.9109 53.9025 78.1467 57.6885 76.6392 61.2523C75.9147 62.9652 75.0177 64.6175 73.9739 66.1631C72.9395 67.6941 71.7514 69.1342 70.443 70.4425C69.1347 71.7508 67.6946 72.9389 66.1636 73.9734C64.618 75.0177 62.9657 75.9142 61.2528 76.6387C57.689 78.1461 53.903 78.9103 49.9995 78.9103C46.0959 78.9103 42.3099 78.1461 38.7461 76.6387C37.0332 75.9142 35.3809 75.0172 33.8353 73.9734C32.3043 72.9389 30.8642 71.7508 29.5559 70.4425C28.2476 69.1342 27.0594 67.6941 26.025 66.1631C24.9806 64.6175 24.0842 62.9652 23.3597 61.2523C21.8522 57.6885 21.0881 53.9025 21.0881 49.9989C21.0881 46.0954 21.8522 42.3094 23.3597 38.7456C24.0842 37.0327 24.9812 35.3804 26.025 33.8348C27.0594 32.3038 28.2476 30.8637 29.5559 29.5554C30.8642 28.247 32.3043 27.0589 33.8353 26.0245C35.3809 24.9801 37.0332 24.0837 38.7461 23.3592C42.3099 21.8517 46.0959 21.0875 49.9995 21.0875ZM49.9995 20.0421C33.4548 20.0421 20.0421 33.4542 20.0421 49.9995C20.0421 66.5447 33.4542 79.9568 49.9995 79.9568C66.5447 79.9568 79.9568 66.5447 79.9568 49.9995C79.9568 33.4542 66.5447 20.0421 49.9995 20.0421Z" fill="#4419BA"/>
    <path d="M64.6471 32.6673C63.0623 31.0825 60.962 30.2085 58.7275 30.2085H41.2706C39.0361 30.2085 36.9327 31.0856 35.3536 32.6704C33.7745 34.2579 32.9037 36.366 32.9037 38.6089V41.1822C32.9037 44.6091 35.051 47.6115 38.6488 49.2172L40.0852 49.8079V41.3082C40.0794 41.2643 40.0763 41.2235 40.0763 41.1796V38.6068C40.0763 38.1709 40.2979 37.8876 40.4286 37.7559C40.5598 37.6241 40.842 37.402 41.2733 37.402H58.7301C59.1639 37.402 59.4467 37.6215 59.5779 37.7559C59.7091 37.8876 59.9276 38.1709 59.9276 38.6037V44.25H67.097V38.6068C67.097 36.3644 66.2262 34.2532 64.6471 32.6684V32.6673Z" fill="white"/>
    <path d="M61.3226 50.7721V50.7689L59.9155 50.1898V58.7481C59.9212 58.7684 59.9212 58.792 59.9212 58.8129V61.3856C59.9212 61.8211 59.7028 62.1075 59.5689 62.2392C59.4377 62.3709 59.1555 62.5931 58.7242 62.5931H41.2706C40.6119 62.5931 40.0762 62.0521 40.0762 61.3945V55.7482H32.9036V61.3945C32.9036 66.0257 36.6561 69.7918 41.2706 69.7918H58.7274C60.962 69.7887 63.0653 68.9147 64.6444 67.3299C66.2235 65.7424 67.0943 63.6312 67.0943 61.3883V58.8155C67.0943 55.3562 64.9382 52.348 61.3231 50.7721H61.3226Z" fill="white"/>
    <path d="M46.9168 53.0964V53.0937C49.4221 55.6085 49.9992 58.7923 49.9992 58.7923C49.9992 58.7923 50.375 56.7428 51.8172 54.6347C52.1726 54.1141 52.5892 53.5908 53.0842 53.0937C55.5895 50.579 58.7624 49.9972 58.7624 49.9972C58.7624 49.9972 56.3678 49.5587 54.0925 47.793C53.7517 47.5269 53.4109 47.2347 53.0816 46.9039C50.5763 44.3896 49.9966 41.2022 49.9966 41.2022C49.9966 41.2022 49.6265 43.2517 48.1843 45.3655C47.8289 45.8862 47.4092 46.4094 46.9142 46.9065C44.4057 49.4212 41.2334 49.9999 41.2334 49.9999C41.2334 49.9999 43.6311 50.4384 45.9064 52.2041C46.2472 52.4733 46.588 52.7655 46.9173 53.0958L46.9168 53.0964Z" fill="white"/>
</svg>
